<?xml version="1.0" encoding="UTF-8"?>
<svg width="512px" height="512px" viewBox="0 0 512 512" version="1.1" xmlns="http://www.w3.org/2000/svg" xmlns:xlink="http://www.w3.org/1999/xlink">
    <!-- Generator: Sketch 52.3 (67297) - http://www.bohemiancoding.com/sketch -->
    <title>icons-dirty/experiment</title>
    <desc>Created with Sketch.</desc>
    <g id="experiment" stroke="none" stroke-width="1" fill="none" fill-rule="evenodd">
        <g id="Group" transform="translate(305.470129, 206.270129) rotate(45.000000) translate(-305.470129, -206.270129) translate(145.470129, -65.729871)" fill="#000000">
            <path d="M134.4,464 L80,464 L-4.26325641e-14,541.589068 L-4.26325641e-14,381.589068 L80,304 L80,116 C80,72.5 132.78179,-7.5606188e-14 160,-8.52651283e-14 C187.21821,-9.49240686e-14 240,72.5 240,116 C240,145 240,261 240,464 L185.6,464 L192,496 L128,496 L134.4,464 Z M144,48 C126.380563,72.0734283 112,102.680281 112,125.385994 L112,393.385994 C112,402.22255 119.163444,409.385994 128,409.385994 C136.836556,409.385994 144,402.22255 144,393.385994 L144,48 Z M320,381.589068 L320,541.589068 L240,464 L240,304 L320,381.589068 Z" id="Combined-Shape"></path>
        </g>
        <path d="M81.5455746,376.850134 C105.545575,419.366461 117.545575,451.366461 117.545575,472.850134 C109.047127,495.51266 54.4358021,496.557408 45.5455746,472.850134 C45.5455746,453.292941 57.5455746,421.292941 81.5455746,376.850134 Z" id="Triangle" fill="#000000" transform="translate(81.545575, 433.545575) rotate(225.000000) translate(-81.545575, -433.545575) "></path>
    </g>
</svg>