<?xml version="1.0" encoding="UTF-8"?>
<svg width="512px" height="512px" viewBox="0 0 512 512" version="1.1" xmlns="http://www.w3.org/2000/svg" xmlns:xlink="http://www.w3.org/1999/xlink">
    <!-- Generator: Sketch 52.3 (67297) - http://www.bohemiancoding.com/sketch -->
    <title>icons-dirty/fluid</title>
    <desc>Created with Sketch.</desc>
    <g id="fluid" stroke="none" stroke-width="1" fill="none" fill-rule="evenodd">
        <path d="M281.25,8 C296.58341,24.00008 311.91659,41.5237143 327.25,60.5714286 C342.58341,79.6191429 360.408232,103.999851 380.725,133.714286 C401.041768,163.42872 417.333272,196.190297 429.6,232 C441.866728,267.809703 448,302.856971 448,337.142857 C448,385.905006 429.983514,427.237926 393.95,461.142857 C357.916487,495.047789 314.600253,512 264,512 C231.799839,512 202.091803,504.952451 174.875,490.857143 C147.658197,476.761834 126.00008,457.523931 109.9,433.142857 C103.766636,423.238046 98.0166935,412.190537 92.65,400 C84.2166245,379.428469 80,358.476297 80,337.142857 L80,332.571429 C80.7666705,268.571109 105.299758,198.85752 153.6,123.428571 C168.93341,99.8094057 191.54985,70.4763657 221.45,35.4285714 C235.250069,20.1904 243.683318,11.0476343 246.75,8 L247.9,6.85714286 C254.033364,2.28569143 259.399977,0 264,0 C268.600023,0 273.966636,2.28569143 280.1,6.85714286 L281.25,8 Z M279.488889,464 C313.959432,464 343.595246,451.638219 368.397222,426.914286 C393.199198,402.190353 405.6,372.647791 405.6,338.285714 C405.6,320.685626 402.237071,303.923889 395.511111,288 C384.581427,329.066872 363.563119,364.476042 332.455556,394.228571 C301.347993,423.981101 265.196502,443.047577 224,451.428571 C242.496389,459.809566 260.9925,464 279.488889,464 Z" id="drop" fill="#000000"></path>
    </g>
</svg>