<?xml version="1.0" encoding="UTF-8"?>
<svg width="512px" height="512px" viewBox="0 0 512 512" version="1.1" xmlns="http://www.w3.org/2000/svg" xmlns:xlink="http://www.w3.org/1999/xlink">
    <!-- Generator: Sketch 52.3 (67297) - http://www.bohemiancoding.com/sketch -->
    <title>icons-dirty/material</title>
    <desc>Created with Sketch.</desc>
    <g id="material" stroke="none" stroke-width="1" fill="none" fill-rule="evenodd">
        <path d="M215.721919,192 L147.721919,304 L364.278081,304 L296.278081,192 L288,178.365513 L288,32 L224,32 L224,178.365513 L215.721919,192 Z M192,169.411765 L192,32 L176,32 C158.326888,32 144,17.673112 144,0 L176,0 L336,0 L368,0 C368,17.673112 353.673112,32 336,32 L320,32 L320,169.411765 L505.866319,475.544525 C512.745288,486.874591 509.13696,501.635931 497.806893,508.5149 C494.052222,510.794523 489.743939,512 485.351418,512 L26.6485817,512 C13.3937478,512 2.64858175,501.254834 2.64858175,488 C2.64858175,483.607479 3.85405919,479.299197 6.13368138,475.544525 L192,169.411765 Z M128,336 C119.163444,336 112,343.163444 112,352 C112,360.836556 119.163444,368 128,368 L208,368 C216.836556,368 224,360.836556 224,352 C224,343.163444 216.836556,336 208,336 L128,336 Z" id="Combined-Shape" fill="#000000"></path>
    </g>
</svg>