<?xml version="1.0" encoding="UTF-8"?>
<svg width="512px" height="512px" viewBox="0 0 512 512" version="1.1" xmlns="http://www.w3.org/2000/svg" xmlns:xlink="http://www.w3.org/1999/xlink">
    <!-- Generator: Sketch 52.3 (67297) - http://www.bohemiancoding.com/sketch -->
    <title>icons-dirty/organization</title>
    <desc>Created with Sketch.</desc>
    <g id="organization" stroke="none" stroke-width="1" fill="none" fill-rule="evenodd">
        <path d="M80,272 L80,370.01628 C107.603635,377.120964 128,402.178569 128,432 C128,467.346224 99.346224,496 64,496 C28.653776,496 0,467.346224 0,432 C0,402.178569 20.3963646,377.120964 48,370.01628 L48,272 C48,254.326888 62.326888,240 80,240 L240,240 L240,141.98372 C212.396365,134.879036 192,109.821431 192,80 C192,44.653776 220.653776,16 256,16 C291.346224,16 320,44.653776 320,80 C320,109.821431 299.603635,134.879036 272,141.98372 L272,240 L432,240 C449.673112,240 464,254.326888 464,272 L464,370.01628 C491.603635,377.120964 512,402.178569 512,432 C512,467.346224 483.346224,496 448,496 C412.653776,496 384,467.346224 384,432 C384,402.178569 404.396365,377.120964 432,370.01628 L432,272 L272,272 L272,370.01628 C299.603635,377.120964 320,402.178569 320,432 C320,467.346224 291.346224,496 256,496 C220.653776,496 192,467.346224 192,432 C192,402.178569 212.396365,377.120964 240,370.01628 L240,272 L80,272 Z" id="Combined-Shape" fill="#000000"></path>
    </g>
</svg>