<?xml version="1.0" encoding="UTF-8"?>
<svg width="512px" height="512px" viewBox="0 0 512 512" version="1.1" xmlns="http://www.w3.org/2000/svg" xmlns:xlink="http://www.w3.org/1999/xlink">
    <!-- Generator: Sketch 52.3 (67297) - http://www.bohemiancoding.com/sketch -->
    <title>icons-dirty/particle</title>
    <desc>Created with Sketch.</desc>
    <g id="particle" stroke="none" stroke-width="1" fill="none" fill-rule="evenodd">
        <polygon id="Polygon-Copy-9" fill="#000000" points="62.6425042 368 125.285008 404 125.285008 476 62.6425042 512 4.22100576e-14 476 2.22044605e-15 404"></polygon>
        <polygon id="Polygon-Copy-10" fill="#000000" points="320.455838 368 383.098342 404 383.098342 476 320.455838 512 257.813333 476 257.813333 404"></polygon>
        <polygon id="Polygon-Copy-8" fill="#000000" points="191.549171 0 254.191675 36 254.191675 108 191.549171 144 128.906667 108 128.906667 36"></polygon>
        <polygon id="Polygon-Copy-11" fill="#000000" points="449.362504 0 512.005008 36 512.005008 108 449.362504 144 386.72 108 386.72 36"></polygon>
        <polygon id="Polygon-Copy-9" fill="#000000" points="62.6425042 122.666667 125.285008 158.666667 125.285008 230.666667 62.6425042 266.666667 4.22100576e-14 230.666667 2.22044605e-15 158.666667"></polygon>
        <polygon id="Polygon-Copy-10" fill="#000000" points="320.455838 122.666667 383.098342 158.666667 383.098342 230.666667 320.455838 266.666667 257.813333 230.666667 257.813333 158.666667"></polygon>
        <polygon id="Polygon-Copy-8" fill="#000000" points="191.549171 245.333333 254.191675 281.333333 254.191675 353.333333 191.549171 389.333333 128.906667 353.333333 128.906667 281.333333"></polygon>
        <polygon id="Polygon-Copy-11" fill="#000000" points="449.362504 245.333333 512.005008 281.333333 512.005008 353.333333 449.362504 389.333333 386.72 353.333333 386.72 281.333333"></polygon>
    </g>
</svg>