<?xml version="1.0" encoding="UTF-8"?>
<svg width="512px" height="512px" viewBox="0 0 512 512" version="1.1" xmlns="http://www.w3.org/2000/svg" xmlns:xlink="http://www.w3.org/1999/xlink">
    <!-- Generator: Sketch 52.3 (67297) - http://www.bohemiancoding.com/sketch -->
    <title>icons-dirty/rheocube</title>
    <desc>Created with Sketch.</desc>
    <g id="rheocube" stroke="none" stroke-width="1" fill="none" fill-rule="evenodd">
        <path d="M32,121.362986 L246.627599,0 L479.062744,120.41482 L480,392.533346 L261.62343,512 L37.6234301,403.911122 L32,121.362986 Z M50.3348688,123.715837 C58.8628093,137.143583 227.112856,211.938242 250.080513,214.853261 C270.823851,211.091232 447.021001,135.676978 460.548726,123.533196 C441.452205,106.938049 264.056082,18.4417861 248.038675,13.7001963 C226.089593,20.8289478 64.7921414,111.771897 50.3348688,123.715837 Z M54.0077395,146.828325 C48.3848707,161.755618 52.9891647,376.121157 56.7796093,392.745597 C67.9846623,401.951062 91.4347014,413.362975 106.673265,414.933619 C108.565544,402.408239 105.749291,349.294073 105.749291,349.294073 C105.749291,349.294073 120.991762,351.250015 128.848223,356.690063 C135.221753,365.839598 159.890664,430.574433 169.502348,446.366667 C179.114032,453.998047 225.626121,477.51663 240.646988,479.648699 C244.545942,467.684743 243.286541,407.42744 239.723014,392.745597 C234.676554,377.321878 186.133567,305.842496 186.133567,305.842496 C186.133567,305.842496 227.852681,323.393853 240.646988,322.483564 C246.026687,311.18674 246.023509,252.022523 241.570962,234.655945 C229.297116,221.439404 73.718333,150.448421 54.0077395,146.828325 Z M110.369109,213.392441 C123.313496,213.101591 139.162538,221.587279 146.403416,226.335437 C148.454058,239.244447 149.300048,285.216779 143.631546,297.521988 C133.5143,297.9567 120.1577,293.627304 110.369109,286.427977 C108.736566,274.035356 105.58077,226.295718 110.369109,213.392441 Z M257.483661,237.452434 C256.50525,255.045698 256.816454,315.14736 260.266992,328.065023 C276.402753,326.500843 447.69696,238.566787 460.548726,227.830709 C462.061611,212.813295 466.329228,153.876962 462.396621,139.078624 C450.360112,139.46069 270.118199,228.159923 257.483661,237.452434 Z M261.56739,388.67093 C259.724912,404.177474 260.157961,470.227442 262.85638,481.474749 C283.349879,479.367908 452.139245,386.492993 462.95558,377.017632 C464.132934,367.542271 466.143829,287.282233 463.149366,284.384884 C457.18909,283.713218 271.565812,380.583311 261.567233,388.67093 L261.56739,388.67093 Z" id="Combined-Shape" fill="#000000"></path>
    </g>
</svg>