<?xml version="1.0" encoding="UTF-8"?>
<svg width="512px" height="512px" viewBox="0 0 512 512" version="1.1" xmlns="http://www.w3.org/2000/svg" xmlns:xlink="http://www.w3.org/1999/xlink">
    <!-- Generator: Sketch 52.3 (67297) - http://www.bohemiancoding.com/sketch -->
    <title>icons-dirty/sample</title>
    <desc>Created with Sketch.</desc>
    <g id="sample" stroke="none" stroke-width="1" fill="none" fill-rule="evenodd">
        <g id="Group" transform="translate(245.754401, 261.754401) rotate(45.000000) translate(-245.754401, -261.754401) translate(101.754401, -66.245599)" fill="#000000">
            <path d="M128,386.136218 L208,306.136218 L208,240 L80,240 L80,434.136218 L96,418.136218 L96,528 C96,536.836556 103.163444,544 112,544 C120.836556,544 128,536.836556 128,528 L128,386.136218 Z M215.555408,160 L264,160 C277.254834,160 288,170.745166 288,184 L288,216 C288,229.254834 277.254834,240 264,240 L240,240 L240,514.995221 C240,523.514351 236.60302,531.681827 230.56162,537.688245 L192.083749,575.943309 L160.115178,656 L127.884822,656 L95.916251,575.943309 L57.4383805,537.688245 C51.3969798,531.681827 48,523.514351 48,514.995221 L48,240 L24,240 C10.745166,240 1.623249e-15,229.254834 0,216 L0,184 C-1.623249e-15,170.745166 10.745166,160 24,160 L72.4445918,160 C57.2433142,143.015792 48,120.587342 48,96 C48,42.980664 90.980664,-4.54747351e-13 144,-4.54747351e-13 C197.019336,-4.54747351e-13 240,42.980664 240,96 C240,120.587342 230.756686,143.015792 215.555408,160 Z" id="Combined-Shape"></path>
        </g>
    </g>
</svg>