<?xml version="1.0" encoding="UTF-8"?>
<svg width="512px" height="512px" viewBox="0 0 512 512" version="1.1" xmlns="http://www.w3.org/2000/svg" xmlns:xlink="http://www.w3.org/1999/xlink">
    <!-- Generator: Sketch 52.3 (67297) - http://www.bohemiancoding.com/sketch -->
    <title>icons-dirty/state</title>
    <desc>Created with Sketch.</desc>
    <g id="state" stroke="none" stroke-width="1" fill="none" fill-rule="evenodd">
        <path d="M100.658057,459.498701 C39.4701863,412.719558 1.42108547e-14,338.969157 1.42108547e-14,256 C1.42108547e-14,254.574894 0.0116447482,253.152508 0.0348442842,251.732932 L230.276878,384.66323 L100.658049,459.498696 Z M130.535631,479.199283 L262.276878,403.138439 L263.271723,403.712813 L264.266568,401.98969 L368,342.099166 L368,486.264547 C334.169742,502.750186 296.165076,512 256,512 C210.414179,512 167.611264,500.084963 130.535669,479.199304 Z M3.02715778,216.510126 C15.0960117,138.565176 62.3264796,72.2383505 127.999929,34.2482832 L128,288.66323 L3.02715778,216.510126 Z M511.070207,234.027248 L297.569219,110.762396 L405.718556,48.3223471 C464.526098,90.7920602 504.575567,157.625944 511.070207,234.027248 Z M511.552911,271.256355 C506.753183,352.919559 463.673083,424.293319 400,467.690246 L400,206.851252 L511.552911,271.256355 Z M374.842626,29.1981564 L160,153.237604 L160,18.6085209 C189.645803,6.60822888 222.051184,0 256,0 C298.89621,0 339.328214,10.5505149 374.842626,29.1981564 Z" id="Combined-Shape" fill="#000000"></path>
    </g>
</svg>