<svg viewBox="0 0 512 512" xmlns="http://www.w3.org/2000/svg"><g fill="currentColor" fill-rule="evenodd"><path d="M151.604 323.933l-38.467-38.467-111.432-1.705 113.137-113.137 111.432 1.705L359.21 39.393C389.97 8.633 478.557-5.31 497.803 13.937c19.246 19.246 5.303 107.834-25.456 138.593L226.274 398.603l-38.466-38.466-18.102 27.152-45.255-45.254 27.153-18.102zM452.548 36.565c-29.481 4.563-61.292 16.037-77.347 32.092L185.696 258.162c-6.248 6.248-6.248 16.379 0 22.627 6.249 6.249 16.38 6.249 22.628 0L452.548 36.565zM341.116 396.898L227.979 510.035l-1.705-111.432 113.137-113.137 1.705 111.432zM41.456 473.635c13.093-47.034 27.235-78.147 42.426-93.338 22.034-10.015 61.39 27.862 50.912 50.912-13.83 13.829-44.942 27.971-93.338 42.426z"/></g></svg>