<svg viewBox="0 0 512 512" xmlns="http://www.w3.org/2000/svg"><path d="M281.25 8c15.333 16 30.667 33.524 46 52.571 15.333 19.048 33.158 43.429 53.475 73.143C401.042 163.43 417.333 196.19 429.6 232c12.267 35.81 18.4 70.857 18.4 105.143 0 48.762-18.016 90.095-54.05 124S314.6 512 264 512c-32.2 0-61.908-7.048-89.125-21.143S126 457.524 109.9 433.143c-6.133-9.905-11.883-20.952-17.25-33.143C84.217 379.428 80 358.476 80 337.143v-4.572c.767-64 25.3-133.713 73.6-209.142 15.333-23.62 37.95-52.953 67.85-88C235.25 20.19 243.683 11.048 246.75 8l1.15-1.143C254.033 2.286 259.4 0 264 0c4.6 0 9.967 2.286 16.1 6.857L281.25 8zm-1.761 456c34.47 0 64.106-12.362 88.908-37.086C393.2 402.19 405.6 372.648 405.6 338.286c0-17.6-3.363-34.362-10.089-50.286-10.93 41.067-31.948 76.476-63.055 106.229-31.108 29.752-67.26 48.819-108.456 57.2 18.496 8.38 36.993 12.571 55.489 12.571z" fill="currentColor" fill-rule="evenodd"/></svg>