<svg viewBox="0 0 512 512" xmlns="http://www.w3.org/2000/svg"><path d="M215.722 192l-68 112h216.556l-68-112L288 178.366V32h-64v146.366L215.722 192zM192 169.412V32h-16c-17.673 0-32-14.327-32-32h224c0 17.673-14.327 32-32 32h-16v137.412l185.866 306.133c6.88 11.33 3.271 26.09-8.06 32.97A24 24 0 0 1 485.352 512H26.65c-13.255 0-24-10.745-24-24a24 24 0 0 1 3.485-12.455L192 169.412zM128 336c-8.837 0-16 7.163-16 16s7.163 16 16 16h80c8.837 0 16-7.163 16-16s-7.163-16-16-16h-80z" fill="currentColor" fill-rule="evenodd"/></svg>