<svg viewBox="0 0 512 512" xmlns="http://www.w3.org/2000/svg"><path d="M80 272v98.016c27.604 7.105 48 32.163 48 61.984 0 35.346-28.654 64-64 64-35.346 0-64-28.654-64-64 0-29.821 20.396-54.879 48-61.984V272c0-17.673 14.327-32 32-32h160v-98.016c-27.604-7.105-48-32.163-48-61.984 0-35.346 28.654-64 64-64 35.346 0 64 28.654 64 64 0 29.821-20.396 54.879-48 61.984V240h160c17.673 0 32 14.327 32 32v98.016c27.604 7.105 48 32.163 48 61.984 0 35.346-28.654 64-64 64-35.346 0-64-28.654-64-64 0-29.821 20.396-54.879 48-61.984V272H272v98.016c27.604 7.105 48 32.163 48 61.984 0 35.346-28.654 64-64 64-35.346 0-64-28.654-64-64 0-29.821 20.396-54.879 48-61.984V272H80z" fill="currentColor" fill-rule="evenodd"/></svg>