<svg viewBox="0 0 512 512" xmlns="http://www.w3.org/2000/svg"><g fill="currentColor" fill-rule="evenodd"><path d="M62.643 368l62.642 36v72l-62.642 36L0 476v-72zM320.456 368l62.642 36v72l-62.642 36-62.643-36v-72zM191.55 0l62.642 36v72l-62.643 36-62.642-36V36zM449.363 0l62.642 36v72l-62.642 36-62.643-36V36zM62.643 122.667l62.642 36v72l-62.642 36-62.643-36v-72zM320.456 122.667l62.642 36v72l-62.642 36-62.643-36v-72zM191.55 245.333l62.642 36v72l-62.643 36-62.642-36v-72zM449.363 245.333l62.642 36v72l-62.642 36-62.643-36v-72z"/></g></svg>