<svg viewBox="0 0 512 512" xmlns="http://www.w3.org/2000/svg"><path d="M32 121.363L246.628 0l232.435 120.415.937 272.118L261.623 512l-224-108.089L32 121.363zm18.335 2.353c8.528 13.428 176.778 88.222 199.746 91.137 20.743-3.762 196.94-79.176 210.468-91.32C441.452 106.938 264.056 18.442 248.039 13.7c-21.95 7.129-183.247 98.072-197.704 110.016zm3.673 23.112c-5.623 14.928-1.019 229.293 2.772 245.918 11.205 9.205 34.655 20.617 49.893 22.188 1.893-12.526-.924-65.64-.924-65.64s15.243 1.956 23.1 7.396c6.373 9.15 31.042 73.884 40.653 89.677 9.612 7.631 56.124 31.15 71.145 33.282 3.899-11.964 2.64-72.222-.924-86.903-5.046-15.424-53.59-86.904-53.59-86.904s41.72 17.552 54.514 16.642c5.38-11.297 5.377-70.461.924-87.828-12.274-13.217-167.853-84.208-187.563-87.828zm56.361 66.564c12.944-.29 28.794 8.195 36.034 12.943 2.051 12.91 2.897 58.882-2.771 71.187-10.118.435-23.474-3.895-33.263-11.094-1.632-12.393-4.788-60.132 0-73.036zm147.115 24.06c-.979 17.594-.668 77.695 2.783 90.613 16.136-1.564 187.43-89.498 200.282-100.234 1.513-15.018 5.78-73.954 1.848-88.752-12.037.382-192.279 89.08-204.913 98.373zm4.083 151.219c-1.842 15.506-1.409 81.556 1.29 92.804 20.493-2.107 189.282-94.982 200.099-104.457 1.177-9.476 3.188-89.736.193-92.633-5.96-.672-191.583 96.198-201.582 104.286z" fill="currentColor" fill-rule="evenodd"/></svg>