<svg viewBox="0 0 512 512" xmlns="http://www.w3.org/2000/svg"><path d="M193.332 291.55H306.47l46.766-46.766-90.51-90.51L125.45 291.55h22.627l-77.685 77.686c-6.248 6.248-6.248 16.379 0 22.627 6.248 6.248 16.379 6.248 22.627 0l100.313-100.313zm221.814-97.992l34.255 34.255c9.373 9.373 9.373 24.569 0 33.941l-22.627 22.628c-9.373 9.372-24.569 9.372-33.941 0l-16.971-16.97-194.45 194.45a32 32 0 0 1-22.721 9.373l-54.259-.158-79.213 34.004-22.79-22.79 34.003-79.215-.158-54.258a32 32 0 0 1 9.373-22.72l194.45-194.451-16.97-16.97c-9.373-9.373-9.373-24.57 0-33.942l22.627-22.627c9.373-9.373 24.569-9.373 33.942 0l34.255 34.255c1.26-22.758 10.584-45.154 27.97-62.54 37.49-37.49 98.274-37.49 135.764 0 37.49 37.49 37.49 98.275 0 135.765-17.385 17.386-39.78 26.71-62.54 27.97z" fill="currentColor" fill-rule="evenodd"/></svg>