<svg viewBox="0 0 512 512" xmlns="http://www.w3.org/2000/svg"><path d="M100.658 459.499C39.47 412.719 0 338.969 0 256c0-1.425.012-2.847.035-4.267l230.242 132.93L100.658 459.5zm29.878 19.7l131.74-76.06.996.574.995-1.723L368 342.1v144.165C334.17 502.75 296.165 512 256 512c-45.586 0-88.389-11.915-125.464-32.8zM3.027 216.51C15.096 138.565 62.327 72.238 128 34.248v254.415L3.027 216.51zm508.043 17.517l-213.5-123.265 108.149-62.44c58.807 42.47 98.857 109.304 105.351 185.705zm.483 37.23c-4.8 81.663-47.88 153.036-111.553 196.433V206.851l111.553 64.405zM374.843 29.197L160 153.238V18.608C189.646 6.609 222.051 0 256 0c42.896 0 83.328 10.55 118.843 29.198z" fill="currentColor" fill-rule="evenodd"/></svg>